<?xml version="1.0" standalone="no"?>
<!DOCTYPE svg PUBLIC "-//W3C//DTD SVG 20010904//EN"
        "http://www.w3.org/TR/2001/REC-SVG-20010904/DTD/svg10.dtd">
<svg version="1.0" xmlns="http://www.w3.org/2000/svg"
     width="900.000000pt" height="900.000000pt" viewBox="0 0 900.000000 900.000000"
     preserveAspectRatio="xMidYMid meet">

  <g transform="translate(0.000000,900.000000) scale(0.100000,-0.100000)"
     fill="#000000" stroke="none">
    <path d="M0 4500 l0 -4500 4500 0 4500 0 0 4500 0 4500 -4500 0 -4500 0 0
-4500z m4184 1617 c22 -23 102 -112 176 -196 74 -85 176 -200 225 -256 50 -56
167 -188 260 -295 94 -106 227 -258 297 -337 70 -79 135 -154 143 -166 14 -22
7 -41 -121 -333 -74 -170 -140 -322 -146 -337 -6 -15 -16 -27 -23 -25 -7 2
-51 46 -97 98 -116 131 -664 752 -827 938 -73 83 -139 152 -145 152 -6 0 -25
-30 -41 -67 -15 -38 -39 -90 -51 -118 -27 -60 -73 -166 -149 -340 -32 -71 -72
-164 -90 -205 -18 -41 -85 -194 -148 -340 -63 -146 -158 -364 -212 -485 -53
-121 -139 -317 -190 -435 -160 -368 -226 -515 -233 -522 -6 -6 -613 -12 -729
-8 -15 0 -17 31 -4 45 5 6 43 89 84 185 97 227 222 511 253 577 13 28 24 54
24 57 0 2 13 33 29 68 16 35 36 79 44 98 19 44 153 352 291 668 129 294 296
678 361 827 26 61 58 133 70 160 13 28 53 120 89 205 37 85 74 171 83 190 9
19 34 76 55 125 22 50 44 96 50 103 8 9 85 12 321 12 l310 0 41 -43z m2746 25
c0 -11 -6 -32 -14 -48 -8 -16 -63 -139 -121 -274 -213 -487 -273 -626 -305
-695 -17 -38 -41 -95 -52 -125 -11 -30 -24 -59 -28 -65 -4 -5 -44 -95 -90
-200 -83 -192 -134 -308 -233 -535 -31 -69 -64 -148 -75 -175 -11 -28 -36 -84
-55 -125 -19 -41 -46 -103 -61 -137 -14 -35 -37 -87 -51 -117 -14 -30 -25 -57
-25 -61 0 -3 -13 -33 -29 -68 -16 -34 -45 -98 -64 -142 -20 -44 -60 -137 -91
-207 -31 -70 -56 -129 -56 -132 0 -19 -90 -194 -102 -197 -7 -2 -151 -3 -320
-1 l-308 3 -102 116 c-57 64 -144 162 -193 217 -50 56 -106 120 -125 142 -19
23 -132 151 -250 284 -368 416 -459 520 -468 536 -6 11 7 51 43 133 28 64 94
214 146 333 63 146 99 218 109 218 8 0 44 -35 80 -78 36 -42 121 -140 190
-217 69 -77 188 -212 265 -300 77 -88 178 -203 225 -255 47 -53 132 -149 189
-213 57 -64 110 -117 117 -117 10 0 84 137 84 156 0 2 19 46 41 96 23 51 57
129 76 173 20 44 45 100 56 125 11 25 55 128 99 230 44 102 88 203 98 225 31
69 198 449 208 475 5 14 21 50 35 80 28 62 148 336 303 695 57 132 112 246
121 253 13 9 104 12 375 12 341 0 358 -1 358 -18z"/>
  </g>
</svg>

