<?xml version="1.0" standalone="no"?>
<!DOCTYPE svg PUBLIC "-//W3C//DTD SVG 20010904//EN"
        "http://www.w3.org/TR/2001/REC-SVG-20010904/DTD/svg10.dtd">
<svg version="1.0" xmlns="http://www.w3.org/2000/svg"
     width="980.000000pt" height="980.000000pt" viewBox="0 0 980.000000 980.000000"
     preserveAspectRatio="xMidYMid meet">

  <g transform="translate(0.000000,980.000000) scale(0.100000,-0.100000)"
     fill="#000000" stroke="none">
    <path d="M0 4900 l0 -4900 4900 0 4900 0 0 4900 0 4900 -4900 0 -4900 0 0
-4900z m3147 1263 c22 -38 183 -311 358 -608 175 -297 419 -711 542 -920 123
-209 228 -384 232 -388 4 -4 29 77 55 180 26 103 49 193 51 198 2 6 4 -230 4
-522 l1 -533 -202 0 -203 0 -435 721 c-239 396 -596 987 -792 1312 -331 549
-359 593 -395 609 -37 17 -25 17 354 18 l391 0 39 -67z m1553 50 c-14 -9 -51
-43 -83 -76 -100 -103 -179 -291 -210 -507 l-14 -95 -7 50 c-37 258 -120 454
-254 598 l-45 47 319 -1 c299 0 317 -1 294 -16z m1072 0 c-19 -18 -16 -27 234
-783 139 -421 293 -885 341 -1032 48 -148 90 -268 93 -267 3 0 43 49 90 110
46 60 89 114 96 120 7 6 2 -24 -12 -68 -88 -284 -214 -702 -214 -712 0 -8 -55
-11 -212 -9 l-211 3 -43 130 c-24 72 -111 339 -194 595 -224 689 -462 1415
-546 1672 -55 167 -81 232 -97 243 -19 13 14 15 337 15 342 0 357 -1 338 -17z
m1664 -7 c-148 -92 -297 -296 -375 -516 l-20 -55 0 81 c-2 167 -67 329 -181
447 l-66 67 341 0 340 -1 -39 -23z m-4666 -2248 c17 -51 49 -127 71 -168 40
-74 139 -204 162 -214 7 -2 -133 -5 -309 -5 l-322 -1 72 73 c83 83 137 180
184 327 30 95 61 253 63 319 1 20 12 -26 24 -101 13 -75 38 -179 55 -230z"/>
  </g>
</svg>

