<?xml version="1.0" encoding="UTF-8"?>
<!DOCTYPE svg PUBLIC "-//W3C//DTD SVG 1.1//EN" "http://www.w3.org/Graphics/SVG/1.1/DTD/svg11.dtd">
<svg xmlns="http://www.w3.org/2000/svg" version="1.1" width="272px" height="131px" style="shape-rendering:geometricPrecision; text-rendering:geometricPrecision; image-rendering:optimizeQuality; fill-rule:evenodd; clip-rule:evenodd" xmlns:xlink="http://www.w3.org/1999/xlink">
<g><path style="opacity:0.016" fill="#a2a2a2" d="M 243.5,26.5 C 242.833,26.5 242.167,26.5 241.5,26.5C 169.998,26.1675 98.6647,26.5008 27.5,27.5C 26.5489,28.9187 26.2155,30.5853 26.5,32.5C 26.1667,32.5 25.8333,32.5 25.5,32.5C 25.0798,30.326 25.0798,28.326 25.5,26.5C 98.3322,25.1682 170.999,25.1682 243.5,26.5 Z"/></g>
<g><path style="opacity:0.934" fill="#b8b8b8" d="M 241.5,26.5 C 221.004,27.3319 200.337,27.8319 179.5,28C 178.944,28.3826 178.611,28.8826 178.5,29.5C 128.156,28.8379 78.1555,29.5046 28.5,31.5C 27.5655,30.4324 27.2322,29.099 27.5,27.5C 98.6647,26.5008 169.998,26.1675 241.5,26.5 Z"/></g>
<g><path style="opacity:0.943" fill="#b1b1b1" d="M 241.5,26.5 C 242.167,26.5 242.833,26.5 243.5,26.5C 243.5,26.8333 243.5,27.1667 243.5,27.5C 242.662,27.8417 242.328,28.5084 242.5,29.5C 241.833,29.5 241.167,29.5 240.5,29.5C 219.833,29.5 199.167,29.5 178.5,29.5C 178.611,28.8826 178.944,28.3826 179.5,28C 200.337,27.8319 221.004,27.3319 241.5,26.5 Z"/></g>
<g><path style="opacity:0.163" fill="#cfcfcf" d="M 27.5,27.5 C 27.2322,29.099 27.5655,30.4324 28.5,31.5C 28.5,53.5 28.5,75.5 28.5,97.5C 30.8333,97.5 33.1667,97.5 35.5,97.5C 43.6566,98.3294 51.9899,98.8294 60.5,99C 50.4481,98.8545 40.7814,99.6879 31.5,101.5C 29.5328,101.739 27.6995,101.406 26,100.5C 25.5,77.8358 25.3334,55.1691 25.5,32.5C 25.8333,32.5 26.1667,32.5 26.5,32.5C 26.2155,30.5853 26.5489,28.9187 27.5,27.5 Z"/></g>
<g><path style="opacity:0.864" fill="#e7e7e7" d="M 26.5,32.5 C 27.1717,54.5689 27.8384,76.7356 28.5,99C 28.1667,99.1667 27.8333,99.3333 27.5,99.5C 26.5003,77.1766 26.167,54.8433 26.5,32.5 Z"/></g>
<g><path style="opacity:0.584" fill="#f8f8f8" d="M 142.5,52.5 C 143.822,52.33 144.989,52.6634 146,53.5C 147.346,58.374 149.179,63.0407 151.5,67.5C 153.5,62.8333 155.5,58.1667 157.5,53.5C 161.085,52.2868 162.251,53.6201 161,57.5C 159,62.8333 157,68.1667 155,73.5C 152.667,78.8333 150.333,78.8333 148,73.5C 146.393,68.0116 144.393,62.6783 142,57.5C 141.36,55.735 141.527,54.0683 142.5,52.5 Z"/></g>
<g><path style="opacity:0.209" fill="#f6f6f6" d="M 164.5,52.5 C 165.496,52.4142 166.329,52.7476 167,53.5C 167.667,61.1667 167.667,68.8333 167,76.5C 165.667,77.8333 164.333,77.8333 163,76.5C 161.918,68.2338 162.418,60.2338 164.5,52.5 Z"/></g>
<g><path style="opacity:0.247" fill="#8f8f8f" d="M 240.5,29.5 C 241.167,29.5 241.833,29.5 242.5,29.5C 242.831,52.0062 242.497,74.3396 241.5,96.5C 241.542,74.1746 241.209,51.8412 240.5,29.5 Z"/></g>
<g><path style="opacity:0.306" fill="#f6f6f6" d="M 108.5,62.5 C 108.351,61.448 108.517,60.448 109,59.5C 109.671,60.2524 110.504,60.5858 111.5,60.5C 112.983,62.0938 114.483,63.7605 116,65.5C 117.262,61.6875 117.929,57.6875 118,53.5C 119.587,52.273 120.921,52.6063 122,54.5C 122.667,61.5 122.667,68.5 122,75.5C 121.163,77.0074 119.996,77.5074 118.5,77C 114.283,72.7176 110.95,67.8843 108.5,62.5 Z"/></g>
<g><path style="opacity:0.11" fill="#909090" d="M 243.5,26.5 C 245.49,49.4761 246.157,72.8094 245.5,96.5C 244.833,96.5 244.167,96.5 243.5,96.5C 243.5,73.5 243.5,50.5 243.5,27.5C 243.5,27.1667 243.5,26.8333 243.5,26.5 Z"/></g>
<g><path style="opacity:0.726" fill="#efefef" d="M 111.5,60.5 C 110.504,60.5858 109.671,60.2524 109,59.5C 108.517,60.448 108.351,61.448 108.5,62.5C 107.81,67.233 107.144,72.0664 106.5,77C 105.004,77.5074 103.837,77.0074 103,75.5C 102.333,68.5 102.333,61.5 103,54.5C 103.837,52.9926 105.004,52.4926 106.5,53C 108.808,55.1277 110.474,57.6277 111.5,60.5 Z"/></g>
<g><path style="opacity:0.424" fill="#f4f4f4" d="M 139.5,62.5 C 142.898,66.8628 144.564,71.6961 144.5,77C 143.5,77.6667 142.5,77.6667 141.5,77C 139.482,70.9881 135.482,69.1547 129.5,71.5C 129.503,66.5048 131.169,61.8381 134.5,57.5C 136.436,61.4825 138.269,65.4825 140,69.5C 140.429,67.3313 139.929,65.3313 138.5,63.5C 138.624,62.8933 138.957,62.56 139.5,62.5 Z M 133.5,61.5 C 137.546,64.464 137.213,66.1307 132.5,66.5C 132.629,64.7839 132.962,63.1172 133.5,61.5 Z"/></g>
<g><path style="opacity:0.299" fill="#f7f7f7" d="M 139.5,62.5 C 138.957,62.56 138.624,62.8933 138.5,63.5C 139.929,65.3313 140.429,67.3313 140,69.5C 138.269,65.4825 136.436,61.4825 134.5,57.5C 131.169,61.8381 129.503,66.5048 129.5,71.5C 129.263,74.8968 127.596,76.7301 124.5,77C 123.941,76.2753 123.608,75.4419 123.5,74.5C 126.227,67.3803 129.227,60.3803 132.5,53.5C 133.72,52.2889 134.887,52.2889 136,53.5C 137.741,56.3093 138.908,59.3093 139.5,62.5 Z M 133.5,61.5 C 132.962,63.1172 132.629,64.7839 132.5,66.5C 137.213,66.1307 137.546,64.464 133.5,61.5 Z"/></g>
<g><path style="opacity:0.917" fill="#c4c4c4" d="M 243.5,27.5 C 243.5,50.5 243.5,73.5 243.5,96.5C 243.5,97.5 243.5,98.5 243.5,99.5C 231.784,100.144 220.451,99.4777 209.5,97.5C 220.346,97.8278 231.013,97.4944 241.5,96.5C 242.497,74.3396 242.831,52.0062 242.5,29.5C 242.328,28.5084 242.662,27.8417 243.5,27.5 Z"/></g>
<g><path style="opacity:0.239" fill="#bebebe" d="M 137.5,95.5 C 137.704,97.6854 138.37,99.6854 139.5,101.5C 136.852,101.794 134.185,102.128 131.5,102.5C 129.869,100.941 129.036,98.9412 129,96.5C 127.17,98.1581 125.836,100.158 125,102.5C 123.39,100.469 121.557,100.469 119.5,102.5C 115.743,102.427 112.076,102.094 108.5,101.5C 109.11,100.609 109.443,99.609 109.5,98.5C 110.434,97.4324 110.768,96.099 110.5,94.5C 119.709,94.6108 128.709,94.9442 137.5,95.5 Z"/></g>
<g><path style="opacity:0.159" fill="#d0d0d0" d="M 184.5,94.5 C 184.298,96.9496 184.631,99.283 185.5,101.5C 183.506,101.444 181.339,101.777 179,102.5C 177.541,102.192 176.374,101.525 175.5,100.5C 175.631,99.7611 175.464,99.0944 175,98.5C 174.346,99.6956 173.846,99.6956 173.5,98.5C 174.243,97.8182 174.909,97.1515 175.5,96.5C 175.611,95.8826 175.944,95.3826 176.5,95C 179.326,94.9713 181.993,94.8046 184.5,94.5 Z"/></g>
<g><path style="opacity:0.384" fill="#c8c8c8" d="M 89.5,95.5 C 89.1667,96.1667 88.8333,96.8333 88.5,97.5C 86.6357,104.018 84.8024,104.018 83,97.5C 81.7592,98.9375 81.2592,100.438 81.5,102C 79.074,101.952 76.7407,102.119 74.5,102.5C 73.5224,102.023 72.6891,101.357 72,100.5C 71.3946,102.481 70.3946,102.815 69,101.5C 68.5034,99.1902 68.3367,96.8568 68.5,94.5C 75.4597,94.362 82.4597,94.6953 89.5,95.5 Z"/></g>
<g><path style="opacity:0.186" fill="#c0c0c0" d="M 184.5,94.5 C 189.467,94.4336 194.467,94.6003 199.5,95C 200.867,97.3015 201.534,99.8015 201.5,102.5C 199.416,101.752 197.416,101.752 195.5,102.5C 194.669,100.527 194.502,98.5269 195,96.5C 193.943,98.2194 193.11,100.053 192.5,102C 191.551,102.617 190.718,102.451 190,101.5C 189.667,100.167 189.333,98.8333 189,97.5C 188.34,99.3237 187.173,100.657 185.5,101.5C 184.631,99.283 184.298,96.9496 184.5,94.5 Z"/></g>
<g><path style="opacity:0.22" fill="#c9c9c9" d="M 139.5,101.5 C 138.37,99.6854 137.704,97.6854 137.5,95.5C 138.884,94.1991 140.384,94.1991 142,95.5C 142.667,97.5 142.667,99.5 142,101.5C 141.23,102.598 140.397,102.598 139.5,101.5 Z"/></g>
<g><path style="opacity:0.261" fill="#d1d1d1" d="M 167.5,95.5 C 167.721,96.7348 168.388,97.7348 169.5,98.5C 169.167,98.8333 168.833,99.1667 168.5,99.5C 165.715,98.0973 163.048,97.0973 160.5,96.5C 159.548,98.0453 159.215,99.712 159.5,101.5C 155.33,101.492 151.33,101.659 147.5,102C 146.565,99.6194 146.232,97.1194 146.5,94.5C 153.816,94.4722 160.816,94.8055 167.5,95.5 Z"/></g>
<g><path style="opacity:0.214" fill="#bebebe" d="M 175.5,96.5 C 174.909,97.1515 174.243,97.8182 173.5,98.5C 173.846,99.6956 174.346,99.6956 175,98.5C 175.464,99.0944 175.631,99.7611 175.5,100.5C 172.979,103.018 170.479,103.018 168,100.5C 166.667,103.167 165.333,103.167 164,100.5C 162.774,102.548 161.274,102.881 159.5,101.5C 159.215,99.712 159.548,98.0453 160.5,96.5C 163.048,97.0973 165.715,98.0973 168.5,99.5C 168.833,99.1667 169.167,98.8333 169.5,98.5C 168.388,97.7348 167.721,96.7348 167.5,95.5C 170.455,93.91 173.122,94.2433 175.5,96.5 Z"/></g>
<g><path style="opacity:0.413" fill="#d0d0d0" d="M 109.5,98.5 C 109.443,99.609 109.11,100.609 108.5,101.5C 104.427,101.55 100.427,102.216 96.5,103.5C 94.1667,102.833 91.8333,102.167 89.5,101.5C 88.5713,100.311 88.238,98.9778 88.5,97.5C 88.8333,96.8333 89.1667,96.1667 89.5,95.5C 92.9076,93.6246 95.0743,94.6246 96,98.5C 96.49,97.2068 96.6567,95.8734 96.5,94.5C 100.495,95.6505 104.495,95.8171 108.5,95C 109.337,96.0113 109.67,97.1779 109.5,98.5 Z"/></g>
<g><path style="opacity:0.023" fill="#b1b1b1" d="M 35.5,97.5 C 44.1731,97.3336 52.8397,97.5002 61.5,98C 62.8146,99.3946 62.4812,100.395 60.5,101C 50.8391,101.5 41.1724,101.666 31.5,101.5C 40.7814,99.6879 50.4481,98.8545 60.5,99C 51.9899,98.8294 43.6566,98.3294 35.5,97.5 Z"/></g>
<g><path style="opacity:0.033" fill="#9e9e9e" d="M 243.5,96.5 C 244.167,96.5 244.833,96.5 245.5,96.5C 245.703,98.3904 245.037,99.8904 243.5,101C 231.833,101.667 220.167,101.667 208.5,101C 207.2,99.4212 207.534,98.2545 209.5,97.5C 220.451,99.4777 231.784,100.144 243.5,99.5C 243.5,98.5 243.5,97.5 243.5,96.5 Z"/></g>
</svg>
