<svg xmlns="http://www.w3.org/2000/svg" width="150" height="25" viewBox="0 0 775.813 130.812">
  <defs>
    <style>
      .cls-1 {
        fill: #fff;
        fill-rule: evenodd;
      }
    </style>
  </defs>
  <path id="NAVI" class="cls-1" d="M80.055,80.243l15.516,41.044q1.333,3.672-1,4.5A1.287,1.287,0,0,0,93.4,126.96q0,0.837,5.005,1.168,11.513,0.332,26.194.333,3.336,0,3.337-1.334,0-1-1.835-1a20.468,20.468,0,0,1-6.507-1q-7.675-2.167-14.349-18.52-4.5-11.176-13.6-34.7T74.8,28.021Q67.041,7.668,66.374,6,64.035-.009,62.7-0.009T59.033,6.5L21.159,110.109a43.356,43.356,0,0,1-5.673,11.1,11.883,11.883,0,0,1-8.342,4.588,35.042,35.042,0,0,1-4,.334q-2.335,0-2.336,1,0,1.334,3.17,1.334,4.669,0,11.679-.25t7.174-.25q0.665,0,5.422.25t7.091,0.25q3,0,3-1.334,0-1-2.169-1h-1.5a7.227,7.227,0,0,1-4.171-1.252,4.074,4.074,0,0,1-1.835-3.587A33.981,33.981,0,0,1,31,110.109L41.013,80.577a1.74,1.74,0,0,1,1.669-1.335H78.553a1.6,1.6,0,0,1,1.5,1h0ZM44.017,72.068L58.7,27.02q1.333-3.836,2.5,0l15.85,45.048q0.332,1.169-.667,1.168H44.517q-1,0-.5-1.168h0ZM163.811,14.674a16.954,16.954,0,0,1,1.668-7.008,5.481,5.481,0,0,1,4.5-2.67l3.671-.334c1.222-.11,1.835-0.5,1.835-1.168q0-1.165-2.67-1.168-2.171,0-6.09.083t-7.007.25q-3.089.168-3.253,0.167t-3.421-.167q-3.254-.164-7.424-0.25t-6.674-.083q-2.672,0-2.67,1.335c0,0.667.61,1,1.836,1a23.63,23.63,0,0,1,6.006.667q5.169,1.169,5.673,9.343,0.332,5.342.334,36.038V80.077q0,29.2-.835,36.205-1.168,8.508-5,9.343a19.239,19.239,0,0,1-4.338.5c-1.225,0-1.835.391-1.835,1.167s0.889,1.168,2.669,1.168q2.166,0,5.923-.166t6.674-.251q2.917-.086,3.087-0.083c0.109,0,1.251.055,3.42,0.167s4.893,0.193,8.175.25,6.257,0.083,8.926.083q2.5,0,2.5-1.168c0-.776-0.667-1.167-2-1.167a53.969,53.969,0,0,1-6.674-.668q-3.5-.5-4.755-2.753a17.915,17.915,0,0,1-1.752-6.423q-0.837-7.008-.834-36.205V62.892q11.676,14.015,29.615,32.952t25.11,24.61a38.191,38.191,0,0,0,10.928,6.423q4.755,1.588,15.266,1.585h12.347q2.5,0,2.5-1.168c0-.776-0.78-1.167-2.336-1.167a21.529,21.529,0,0,1-4.839-.5,32.993,32.993,0,0,1-11.679-4.838q-5.673-3.669-15.85-13.181-6.174-5.67-23.608-23.525t-25.11-26.194q7.507-8.509,38.04-37.874Q225.209,9,231.216,6.665a29,29,0,0,1,8.509-2c1.222-.11,1.835-0.5,1.835-1.168q0-1.165-2.836-1.168-1,0-7.925.25t-9.761.25a50.63,50.63,0,0,1-5.339-.25,43.852,43.852,0,0,0-4.671-.25q-2.5,0-2.5,1,0,0.837,1.5,1.5A3.131,3.131,0,0,1,212.2,8a8.065,8.065,0,0,1-1.836,4.255,107.319,107.319,0,0,1-8.842,9.76q-3.5,3.5-12.681,13.1t-16.1,16.851q-6.925,7.258-9.26,9.427V50.712q0-30.7.334-36.038h0Zm163.841,65.57,15.516,41.044q1.334,3.672-1,4.5A1.287,1.287,0,0,0,341,126.96q0,0.837,5.006,1.168,11.511,0.332,26.194.333,3.336,0,3.337-1.334,0-1-1.835-1a20.468,20.468,0,0,1-6.507-1q-7.677-2.167-14.349-18.52-4.5-11.176-13.6-34.7T322.4,28.021Q314.638,7.668,313.971,6,311.632-.009,310.3-0.009T306.629,6.5L268.756,110.109a43.372,43.372,0,0,1-5.673,11.1,11.883,11.883,0,0,1-8.342,4.588,35.056,35.056,0,0,1-4,.334q-2.335,0-2.336,1,0,1.334,3.17,1.334,4.668,0,11.679-.25t7.174-.25q0.665,0,5.423.25t7.09,0.25q3,0,3-1.334c0-.668-0.725-1-2.169-1h-1.5a7.227,7.227,0,0,1-4.171-1.252,4.074,4.074,0,0,1-1.835-3.587,33.981,33.981,0,0,1,2.336-11.178l10.01-29.532a1.741,1.741,0,0,1,1.669-1.335H326.15a1.6,1.6,0,0,1,1.5,1h0Zm-36.039-8.175L306.3,27.02q1.334-3.836,2.5,0l15.851,45.048c0.221,0.779,0,1.168-.668,1.168H292.114q-1,0-.5-1.168h0ZM411.741,54.216v-3.5q0-30.7.334-36.038A16.223,16.223,0,0,1,413.66,8a6.383,6.383,0,0,1,4.588-2.836,30.145,30.145,0,0,1,4.171-.5q1.334,0,1.335-1,0-1.333-2.67-1.335-2.169,0-6.089.083t-7.008.25q-3.089.168-3.253,0.167T401.4,2.661q-3.171-.164-7.675-0.25t-7.842-.083q-2.67,0-2.669,1.335c0,0.667.443,1,1.335,1a24.708,24.708,0,0,1,5.672.5q4,0.837,5.423,2.92t1.752,6.59q0.332,5.342.333,36.038V80.077q0,29.2-.834,36.205-1.168,8.508-4.838,9.176a23.828,23.828,0,0,1-5.006.668c-0.891,0-1.334.333-1.334,1q0,1.334,2.669,1.334,2.166,0,6.09-.166t7.007-.251q3.085-.086,3.254-0.083c0.109,0,1.251.055,3.42,0.167s4.893,0.193,8.175.25,6.257,0.083,8.927.083q2.667,0,2.669-1.334,0-1-1.335-1a55.544,55.544,0,0,1-7.508-.668q-3.5-.5-4.755-2.753a17.915,17.915,0,0,1-1.752-6.423q-0.836-7.008-.834-36.205V62.558a0.885,0.885,0,0,1,1-1h70.742a0.885,0.885,0,0,1,1,1V80.077q0,29.2-.834,36.205-1.168,8.508-4.838,9.176a23.828,23.828,0,0,1-5.006.668q-1.337,0-1.335,1,0,1.334,2.67,1.334,2.166,0,6.09-.166t7.007-.251q3.086-.086,3.254-0.083c0.109,0,1.251.055,3.42,0.167s4.893,0.193,8.175.25,6.257,0.083,8.927.083c1.777,0,2.669-.445,2.669-1.334q0-1-1.335-1a55.544,55.544,0,0,1-7.508-.668q-3.5-.5-4.755-2.753a17.915,17.915,0,0,1-1.752-6.423q-0.836-7.008-.834-36.205V50.712q0-30.7.334-36.038A16.223,16.223,0,0,1,500.419,8a6.383,6.383,0,0,1,4.588-2.836,30.145,30.145,0,0,1,4.171-.5q1.334,0,1.335-1,0-1.333-2.67-1.335-2.169,0-6.089.083t-7.008.25q-3.088.168-3.253,0.167t-3.337-.167q-3.171-.164-7.675-0.25t-7.842-.083q-2.67,0-2.669,1.335c0,0.667.443,1,1.335,1a24.708,24.708,0,0,1,5.672.5q4,0.837,5.423,2.92t1.752,6.59q0.332,5.342.333,36.038v3.5a0.885,0.885,0,0,1-1,1H412.742a0.885,0.885,0,0,1-1-1h0ZM598.44,9.668q7.008,0.168,10.511.167,19.684,0.336,20.522,9.176a6.622,6.622,0,0,0,.083.918,7.063,7.063,0,0,1,.084.918q0.163,2.839,1.335,2.836c0.776,0,1.167-.722,1.167-2.169q0-.5.251-8.009t0.25-10.344q0-2-.834-2a3.638,3.638,0,0,0-.918.167,14.011,14.011,0,0,1-1.668.334q-1.087.168-2.086,0.334a67.4,67.4,0,0,1-11.846.834H552.725a131.435,131.435,0,0,1-13.181-.834A14.613,14.613,0,0,1,534.705.909a13.427,13.427,0,0,0-2.5-.918q-0.669,0-1.669,3.17-3.672,14.684-3.67,17.352c0,1,.276,1.5.834,1.5q1,0,1.668-1.668a35.3,35.3,0,0,1,2.837-5.172,9.959,9.959,0,0,1,5.589-4.088Q541.379,10,549.221,9.835q4,0,12.346-.167T573.914,9.5V80.077q0,29.2-.834,36.205-1.17,8.508-4.839,9.176a23.82,23.82,0,0,1-5,.668c-0.892,0-1.335.333-1.335,1q0,1.334,2.669,1.334,2.167,0,6.09-.166t7.008-.251q3.086-.086,3.253-0.083t3.421,0.167q3.252,0.163,8.175.25t8.926,0.083q2.667,0,2.67-1.334,0-1-1.335-1a55.531,55.531,0,0,1-7.508-.668q-3.5-.5-4.755-2.753a17.915,17.915,0,0,1-1.752-6.423q-0.837-7.008-.834-36.205V9.5Q591.433,9.5,598.44,9.668ZM758.11,111.026q18.519-19.771,18.519-48.468T758.193,16.926Q739.755-.006,711.06-0.009a67.259,67.259,0,0,0-29.532,6.34Q668.346,12.674,660.756,22.6a76.706,76.706,0,0,0-11.512,20.939,64.362,64.362,0,0,0-3.921,21.69,75.4,75.4,0,0,0,2.252,18.353A65.49,65.49,0,0,0,655,101.266a63.678,63.678,0,0,0,12.513,15.183,55.212,55.212,0,0,0,18.353,10.427,71.693,71.693,0,0,0,24.193,3.921Q739.59,130.8,758.11,111.026Zm-81.754-4.171q-15.185-17.6-15.183-46.3,0-26.528,13.515-40.71t35.2-14.182q21.023,0,35.871,16.434T760.612,67.23a80.423,80.423,0,0,1-3.42,24.526q-3.422,10.679-8.426,16.684a42.2,42.2,0,0,1-11.595,9.76,45.492,45.492,0,0,1-12.013,5.006,47.065,47.065,0,0,1-10.6,1.251Q691.54,124.457,676.356,106.855Z" transform="translate(-0.813)"/>
</svg>
